<?xml version="1.0" encoding="utf-8"?>
<!-- Generator: Adobe Illustrator 28.0.0, SVG Export Plug-In . SVG Version: 6.00 Build 0)  -->
<svg version="1.1" id="Layer_1" xmlns="http://www.w3.org/2000/svg" xmlns:xlink="http://www.w3.org/1999/xlink" x="0px" y="0px"
	 viewBox="0 0 500 500" style="enable-background:new 0 0 500 500;" xml:space="preserve">
<style type="text/css">
	.st0{fill:#FFFFFF;}
</style>
<g id="C8akAo_00000013153008036589837390000006436989248888679095_">
	<g>
		<g>
			<path class="st0" d="M124.79,163.07c8.88,0,17.32,0,27.07,0c0-9.29,0-17.63,0-27.22c9.67,0,18.05,0,27.47,0
				c0.54-9.84,1.01-18.47,1.51-27.6c45.38,0,89.91,0,135.57,0c0.46,8.72,0.92,17.33,1.43,27.14c9.14,0,17.52,0,27.24,0
				c0,9.57,0,17.9,0,27.37c9.7,0,18.09,0,27.38,0c0,36.94,0,72.72,0,109.71c-8.89,0-17.29,0-26.49,0c0,10.16,0,19.13,0,29.2
				c4.32,0.27,8.6,0.64,12.88,0.77c4.35,0.13,8.7,0.03,13.8,0.03c0,8.98,0,16.68,0,25.65c-18.37,0-36.2,0-55.45,0
				c0,19.04,0,36.88,0,55.22c-9.19,0-16.95,0-25.74,0c0-8.67,0-17.07,0-26.53c-10.15,0-19.3,0-29.62,0c0,8.91,0,17.29,0,26.36
				c-8.87,0-16.61,0-25.36,0c-0.4-8.72-0.8-17.35-1.23-26.65c-9.81,0-18.75,0-28.79,0c0,9.07,0,17.47,0,26.6
				c-8.81,0-16.54,0-25.74,0c0-17.68,0-35.46,0-54.34c-19.3,0-37.19,0-55.88,0c0-8.8,0-16.5,0-25.66
				c8.66-0.43,17.56-0.87,26.88-1.33c0-9.73,0-18.48,0-28.76c-8.93,0-17.56,0-26.93,0C124.79,235.93,124.79,200.33,124.79,163.07z
				 M235.23,189.64c-19.08-0.77-37.72-0.49-57.55-0.24c0,10.14,0,18.49,0,27.99c-9.55,0-17.91,0-26.56,0c0,10.37,0,19.53,0,29.7
				c9.37,0,17.74,0,27.2,0c0,9.39,0,17.77,0,26.48c10.3,0,19.45,0,29.86,0c0-9.37,0-17.7,0-27.05c9.66,0,18.06,0,27.06,0
				C235.23,227.59,235.23,209.72,235.23,189.64z M290.07,273.58c10.66,0,19.58,0,29.3,0c0-9.22,0-17.35,0-26.91
				c9.45,0,18.07,0,27.02,0c0-10.42,0-19.39,0-29.61c-9.07,0-17.43,0-27.05,0c0-9.57,0-17.92,0-27.03c-19.72,0-38.13,0-56.89,0
				c0,19.02,0,37.15,0,56.67c9.35,0,18,0,27.62,0C290.07,256.44,290.07,264.84,290.07,273.58z M262.98,301.83
				c0-10.28,0-19.21,0-28.54c-9.9,0-18.84,0-28.54,0c-0.89,10.02-1.72,19.2,0.5,28.54C244.58,301.83,253.31,301.83,262.98,301.83z"
				/>
			<path class="st0" d="M375.19,411.94c-10.1,0-18.47,0-27.55,0c0-9.11,0-16.88,0-26.05c8.61,0,17.25,0,26.99,0
				c0-9.71,0-18.07,0-27.1c8.83,0,16.56,0,25.67,0c0,8.47,0,16.78,0,26.69c19.43,0,37.53,0,56.13,0c0,18.53,0,35.43,0,53.24
				c-9.07,0.41-17.7,0.8-27.39,1.23c0,9.22,0,17.59,0,26.69c-18.32,0-35.52,0-53.85,0C375.19,449.01,375.19,431.48,375.19,411.94z"
				/>
			<path class="st0" d="M122.8,411.81c0,19.22,0,36.78,0,54.97c-18.21,0-35.43,0-54.11,0c0-8.96,0-17.57,0-27.29
				c-9.82,0-18.21,0-27.36,0c0-18.31,0-35.45,0-53.6c18.27,0,35.83,0,55.08,0c0-9.49,0-18.05,0-27.19c9.45,0,17.21,0,26.09,0
				c0,8.6,0,16.97,0,26.75c9.44,0,17.78,0,26.85,0c0,9.41,0,17.39,0,26.37C140.68,411.81,132.56,411.81,122.8,411.81z"/>
			<path class="st0" d="M122.63,79.69c9.68,0,17.79,0,26.66,0c0,8.71,0,16.4,0,25.25c-8.48,0.49-16.81,0.98-26.25,1.52
				c0,8.92,0,17.26,0,26.29c-8.88,0-16.61,0-25.53,0c-0.45-8.51-0.91-17.08-1.44-27.12c-18.63,0-36.44,0-54.78,0
				c0-18.41,0-35.26,0-53.34c9.05,0,17.43,0,26.87,0c0-9.56,0-17.94,0-27.19c18.57,0,36.03,0,54.47,0
				C122.63,42.87,122.63,60.43,122.63,79.69z"/>
			<path class="st0" d="M374.81,79c0-18.44,0-35.99,0-54.15c18.29,0,35.5,0,53.89,0c0,8.91,0,17.29,0,27.15c9.78,0,18.42,0,27.65,0
				c0,18.38,0,35.27,0,53.58c-18.44,0-36.32,0-55.4,0c0,9.71,0,18.04,0,27.12c-9.02,0-16.77,0-25.76,0c0-8.36,0-16.72,0-26.33
				c-9.46-0.44-17.79-0.82-27.18-1.26c0-8.18,0-15.82,0-24.78C356.37,79.91,364.75,79.5,374.81,79z"/>
		</g>
	</g>
</g>
</svg>
